<?xml version="1.0" encoding="utf-8"?>
<!-- Generator: Adobe Illustrator 21.1.0, SVG Export Plug-In . SVG Version: 6.00 Build 0)  -->
<svg version="1.1" baseProfile="basic" id="Layer_1"
	 xmlns="http://www.w3.org/2000/svg" xmlns:xlink="http://www.w3.org/1999/xlink" x="0px" y="0px" viewBox="0 0 101.3 132.7"
	 xml:space="preserve">
<g>
	<g>
		<path fill="#EC417A" d="M93.4,51.7c0,30.4-42.7,75.4-42.7,75.4S7.9,82.1,7.9,51.7c0-30.4,19.1-46.1,42.7-46.1
			C74.3,5.6,93.4,21.3,93.4,51.7z"/>
		<circle fill="#FFFFFF" stroke="#F8BBCF" stroke-width="2.5162" stroke-miterlimit="10" cx="50.7" cy="48.9" r="32.8"/>
		<path fill="#EC417A" d="M50.7,26.3c-12.5,0-22.6,10.1-22.6,22.6c0,12.5,10.1,22.6,22.6,22.6c12.5,0,22.6-10.1,22.6-22.6
			C73.2,36.4,63.1,26.3,50.7,26.3z M56.8,57.6c-1.1,1.2-2.7,2-4.8,2.2V63h-1.3h-1.3v-3.2c-3.5-0.4-5.7-2.4-6.5-6.1l4.1-1.1
			c0.4,2.3,1.6,3.4,3.7,3.5c0,0,0.1,0,0.1,0c1,0,1.7-0.2,2.2-0.7c0.5-0.5,0.7-1.1,0.7-1.8c0-0.7-0.2-1.3-0.7-1.7
			c-0.4-0.3-1.2-0.7-2.3-1.1c-0.3-0.1-0.5-0.2-0.8-0.3c-1.5-0.5-2.6-1-3.4-1.5c-0.8-0.5-1.5-1.2-2-2.1c-0.5-0.9-0.8-1.9-0.8-3.1
			c0-1.6,0.5-3,1.4-4.2c0.9-1.2,2.4-2,4.3-2.3v-2.5h1.3H52v2.5c3,0.4,4.9,2,5.8,5.1l-3.7,1.5c-0.7-2.1-1.8-3.1-3.3-3.1
			c0,0-0.1,0-0.1,0c-0.7,0-1.3,0.2-1.7,0.7c-0.5,0.5-0.7,1-0.7,1.7c0,0.7,0.2,1.2,0.7,1.5c0.3,0.3,0.9,0.6,1.7,0.9
			c0.3,0.1,0.7,0.3,1.1,0.4c1.6,0.6,2.8,1.1,3.7,1.6c0.9,0.5,1.6,1.2,2.2,2.1c0.5,0.9,0.8,2,0.8,3.2C58.5,54.8,57.9,56.4,56.8,57.6z
			"/>
		<path opacity="0.23" fill="#FFFFFF" d="M50.7,5.6v121.5c0,0,42.7-45,42.7-75.4C93.4,21.3,74.3,5.6,50.7,5.6z"/>
	</g>
</g>
</svg>
