<?xml version="1.0" encoding="utf-8"?>
<!-- Generator: Adobe Illustrator 22.0.1, SVG Export Plug-In . SVG Version: 6.00 Build 0)  -->
<svg version="1.1" baseProfile="basic" id="Layer_1"
	 xmlns="http://www.w3.org/2000/svg" xmlns:xlink="http://www.w3.org/1999/xlink" x="0px" y="0px" viewBox="0 0 101.3 132.7"
	 xml:space="preserve">
<g>
	<g>
		<path fill="#2E798F" d="M93.4,51.7c0,30.4-42.7,75.4-42.7,75.4S7.9,82.1,7.9,51.7S27.1,5.6,50.7,5.6S93.4,21.3,93.4,51.7z"/>
		<circle fill="#FFFFFF" stroke="#96C7D6" stroke-width="2.5162" stroke-miterlimit="10" cx="50.7" cy="48.9" r="32.8"/>
		<g>
			<path fill="#2E798F" d="M70.6,50.3c0,0.8-0.7,1.6-1.5,1.7l-27.4,3.2c0.1,0.6,0.3,1.2,0.3,1.8c0,0.6-0.4,1.2-0.6,1.7h24.2
				c0.9,0,1.7,0.8,1.7,1.7s-0.8,1.7-1.7,1.7H38.7c-0.9,0-1.7-0.8-1.7-1.7c0-0.8,1.2-2.8,1.6-3.6L34,35.2h-5.4
				c-0.9,0-1.7-0.8-1.7-1.7s0.8-1.7,1.7-1.7h6.7c1.8,0,1.8,2.1,2.1,3.4h31.5c0.9,0,1.7,0.8,1.7,1.7V50.3z M40.4,68.8
				c-1.8,0-3.4-1.5-3.4-3.4s1.5-3.4,3.4-3.4s3.4,1.5,3.4,3.4S42.2,68.8,40.4,68.8z M63.9,68.8c-1.8,0-3.4-1.5-3.4-3.4
				s1.5-3.4,3.4-3.4c1.8,0,3.4,1.5,3.4,3.4S65.7,68.8,63.9,68.8z"/>
		</g>
		<path opacity="0.23" fill="#FFFFFF" d="M50.7,5.6v121.5c0,0,42.7-45,42.7-75.4S74.3,5.6,50.7,5.6z"/>
	</g>
</g>
</svg>
