<?xml version="1.0" encoding="utf-8"?>
<!-- Generator: Adobe Illustrator 21.1.0, SVG Export Plug-In . SVG Version: 6.00 Build 0)  -->
<svg version="1.1" baseProfile="basic" id="Layer_1"
	 xmlns="http://www.w3.org/2000/svg" xmlns:xlink="http://www.w3.org/1999/xlink" x="0px" y="0px" viewBox="0 0 101.3 132.7"
	 xml:space="preserve">
<g>
	<g>
		<path fill="#378E43" d="M93.4,51.7c0,30.4-42.7,75.4-42.7,75.4S7.9,82.1,7.9,51.7c0-30.4,19.1-46.1,42.7-46.1
			C74.3,5.6,93.4,21.3,93.4,51.7z"/>
		<circle fill="#FFFFFF" stroke="#A5D5A7" stroke-width="2.5162" stroke-miterlimit="10" cx="50.7" cy="48.9" r="32.8"/>
		<g>
			<g>
				<path fill="#378E43" d="M61.5,67.2c4.6-5.1,7.6-13.3,7.6-22.4h-38c0,9.2,3,17.3,7.6,22.4H61.5z"/>
			</g>
			<g>
				<path fill="#378E43" d="M66.1,61.5c-5.5,0-9.8-2.8-9.8-6.3s4.3-6.3,9.8-6.3c5.5,0,9.8,2.8,9.8,6.3S71.6,61.5,66.1,61.5z
					 M66.1,52.1c-3.7,0-6.5,1.6-6.5,3s2.8,3,6.5,3c3.7,0,6.5-1.6,6.5-3S69.8,52.1,66.1,52.1z"/>
			</g>
			<g>
				
					<line fill="none" stroke="#378E43" stroke-width="3.6092" stroke-linecap="round" stroke-linejoin="round" stroke-miterlimit="10" x1="43.2" y1="32.4" x2="43.2" y2="41.6"/>
				
					<line fill="none" stroke="#378E43" stroke-width="3.6092" stroke-linecap="round" stroke-linejoin="round" stroke-miterlimit="10" x1="50.1" y1="32.4" x2="50.1" y2="41.6"/>
				
					<line fill="none" stroke="#378E43" stroke-width="3.6092" stroke-linecap="round" stroke-linejoin="round" stroke-miterlimit="10" x1="57" y1="32.4" x2="57" y2="41.6"/>
			</g>
		</g>
		<path opacity="0.23" fill="#FFFFFF" d="M50.7,5.6v121.5c0,0,42.7-45,42.7-75.4C93.4,21.3,74.3,5.6,50.7,5.6z"/>
	</g>
</g>
</svg>
